<svg width="512" height="512" viewBox="0 0 512 512" fill="none" xmlns="http://www.w3.org/2000/svg">
  <!-- Background Circle -->
  <circle cx="256" cy="256" r="256" fill="url(#gradient)"/>
  
  <!-- Film Strip -->
  <rect x="80" y="150" width="352" height="212" rx="20" fill="#2a2a2a" stroke="#4a4a4a" stroke-width="4"/>
  
  <!-- Film Holes -->
  <circle cx="110" cy="180" r="8" fill="#1a1a1a"/>
  <circle cx="110" cy="220" r="8" fill="#1a1a1a"/>
  <circle cx="110" cy="260" r="8" fill="#1a1a1a"/>
  <circle cx="110" cy="300" r="8" fill="#1a1a1a"/>
  <circle cx="110" cy="340" r="8" fill="#1a1a1a"/>
  
  <circle cx="402" cy="180" r="8" fill="#1a1a1a"/>
  <circle cx="402" cy="220" r="8" fill="#1a1a1a"/>
  <circle cx="402" cy="260" r="8" fill="#1a1a1a"/>
  <circle cx="402" cy="300" r="8" fill="#1a1a1a"/>
  <circle cx="402" cy="340" r="8" fill="#1a1a1a"/>
  
  <!-- Main Screen -->
  <rect x="140" y="180" width="232" height="152" rx="8" fill="#000"/>
  
  <!-- Play Button -->
  <circle cx="256" cy="256" r="40" fill="rgba(255,255,255,0.9)"/>
  <path d="M240 235 L280 256 L240 277 Z" fill="#333"/>
  
  <!-- Film Frames -->
  <rect x="145" y="185" width="44" height="32" rx="2" fill="#333" stroke="#555" stroke-width="1"/>
  <rect x="195" y="185" width="44" height="32" rx="2" fill="#444" stroke="#555" stroke-width="1"/>
  <rect x="245" y="185" width="44" height="32" rx="2" fill="#333" stroke="#555" stroke-width="1"/>
  <rect x="295" y="185" width="44" height="32" rx="2" fill="#444" stroke="#555" stroke-width="1"/>
  <rect x="145" y="295" width="44" height="32" rx="2" fill="#444" stroke="#555" stroke-width="1"/>
  <rect x="195" y="295" width="44" height="32" rx="2" fill="#333" stroke="#555" stroke-width="1"/>
  <rect x="245" y="295" width="44" height="32" rx="2" fill="#444" stroke="#555" stroke-width="1"/>
  <rect x="295" y="295" width="44" height="32" rx="2" fill="#333" stroke="#555" stroke-width="1"/>
  
  <!-- Stars -->
  <path d="M150 120 L155 135 L170 135 L158 145 L163 160 L150 150 L137 160 L142 145 L130 135 L145 135 Z" fill="#FFD700"/>
  <path d="M362 120 L367 135 L382 135 L370 145 L375 160 L362 150 L349 160 L354 145 L342 135 L357 135 Z" fill="#FFD700"/>
  <path d="M256 80 L261 95 L276 95 L264 105 L269 120 L256 110 L243 120 L248 105 L236 95 L251 95 Z" fill="#FFD700"/>
  
  <!-- Gradient Definition -->
  <defs>
    <linearGradient id="gradient" x1="0%" y1="0%" x2="100%" y2="100%">
      <stop offset="0%" style="stop-color:#667eea;stop-opacity:1" />
      <stop offset="100%" style="stop-color:#764ba2;stop-opacity:1" />
    </linearGradient>
  </defs>
</svg>
